<?xml version="1.0" encoding="UTF-8" standalone="no"?>
<svg
   width="64.934715mm"
   height="77.384079mm"
   viewBox="0 0 230.08364 274.19555"
   id="svg2"
   version="1.1"
   inkscape:version="1.3.2 (1:1.3.2+202311252150+091e20ef0f)"
   sodipodi:docname="Constant-ku.svg"
   xmlns:inkscape="http://www.inkscape.org/namespaces/inkscape"
   xmlns:sodipodi="http://sodipodi.sourceforge.net/DTD/sodipodi-0.dtd"
   xmlns="http://www.w3.org/2000/svg"
   xmlns:svg="http://www.w3.org/2000/svg"
   xmlns:rdf="http://www.w3.org/1999/02/22-rdf-syntax-ns#"
   xmlns:cc="http://creativecommons.org/ns#"
   xmlns:dc="http://purl.org/dc/elements/1.1/">
  <defs
     id="defs4" />
  <sodipodi:namedview
     id="base"
     pagecolor="#ffffff"
     bordercolor="#666666"
     borderopacity="1.0"
     inkscape:pageopacity="0.0"
     inkscape:pageshadow="2"
     inkscape:zoom="0.5"
     inkscape:cx="128"
     inkscape:cy="63"
     inkscape:document-units="px"
     inkscape:current-layer="layer1"
     showgrid="false"
     fit-margin-top="0"
     fit-margin-left="0"
     fit-margin-right="0"
     fit-margin-bottom="0"
     inkscape:window-width="1864"
     inkscape:window-height="1016"
     inkscape:window-x="56"
     inkscape:window-y="27"
     inkscape:window-maximized="1"
     inkscape:document-rotation="0"
     inkscape:showpageshadow="2"
     inkscape:pagecheckerboard="0"
     inkscape:deskcolor="#d1d1d1" />
  <metadata
     id="metadata7">
    <rdf:RDF>
      <cc:Work
         rdf:about="">
        <dc:format>image/svg+xml</dc:format>
        <dc:type
           rdf:resource="http://purl.org/dc/dcmitype/StillImage" />
      </cc:Work>
    </rdf:RDF>
  </metadata>
  <g
     inkscape:label="Layer 1"
     inkscape:groupmode="layer"
     id="layer1"
     transform="translate(-316.92875,-415.91262)">
    <path
       d="m 372.94038,562.81737 q 9.05577,6.70798 20.45933,17.10535 11.40357,10.06197 22.47174,21.80094 11.40356,11.73896 21.46553,24.14872 10.06197,12.07437 16.09915,22.47174 h -32.8691 q -6.37258,-10.39737 -15.76375,-21.13014 -9.39117,-11.06817 -20.12394,-21.13014 -10.39737,-10.06197 -21.13014,-18.44694 -10.39736,-8.38498 -18.78234,-14.08676 v 74.79398 H 316.92875 V 420.6082 l 27.83811,-4.69558 v 141.87377 q 18.44695,-16.09915 36.89389,-31.8629 18.44694,-16.09916 33.2045,-33.2045 h 32.5337 q -14.42216,17.10534 -34.88149,35.21689 -20.12394,18.11155 -39.57708,34.88149 z"
       style="font-style:normal;font-variant:normal;font-weight:normal;font-stretch:normal;font-size:335.399px;line-height:1.25;font-family:'Ubuntu Mono';-inkscape-font-specification:'Ubuntu Mono';letter-spacing:0px;word-spacing:0px;fill:#008000;fill-opacity:1;stroke:none;stroke-width:1px;stroke-linecap:butt;stroke-linejoin:miter;stroke-opacity:1"
       id="path832" />
    <path
       d="m 536.0672,697.15387 q -6.0034,1.50084 -15.94651,3.1893 -9.75552,1.68845 -22.70033,1.68845 -11.25636,0 -18.94821,-3.1893 -7.69184,-3.37691 -12.38199,-9.3803 -4.69015,-6.00339 -6.75382,-14.07045 -2.06366,-8.25466 -2.06366,-18.19778 v -54.78095 h 17.44735 v 51.02883 q 0,17.82257 5.62818,25.51441 5.62818,7.69185 18.94821,7.69185 2.81409,0 5.81579,-0.18761 3.00169,-0.1876 5.62818,-0.37521 2.62648,-0.37521 4.69015,-0.56282 2.25127,-0.37521 3.1893,-0.75042 v -82.35903 h 17.44736 z"
       id="text1"
       style="font-size:187.606px;font-family:Ubuntu;-inkscape-font-specification:Ubuntu;fill:#008000;stroke:#008000;stroke-width:1.875;stroke-linecap:round;stroke-linejoin:round"
       transform="scale(1.0186361,0.98170483)"
       aria-label="u" />
  </g>
</svg>
